<svg width="55" height="55" viewBox="0 0 55 55" fill="none" xmlns="http://www.w3.org/2000/svg">
<path d="M3.07888 54.8682C2.20809 54.8682 1.57054 54.6778 1.16624 54.2971C0.761945 53.9164 0.559796 53.3307 0.559796 52.5399V1.75719C0.559796 0.58573 1.67939 0 3.91857 0H4.57167C6.77976 0 7.8838 0.58573 7.8838 1.75719V48.9377H30.6955C31.2864 48.9377 31.7062 49.1281 31.955 49.5088C32.2038 49.8602 32.3282 50.446 32.3282 51.266V52.5399C32.3282 53.3307 32.2038 53.9164 31.955 54.2971C31.7062 54.6778 31.2864 54.8682 30.6955 54.8682H3.07888Z" fill="url(#paint0_linear_36_4)"/>
<path d="M3.35878 55C2.17699 55 1.32174 54.8682 0.793045 54.6046C0.264348 54.3118 0 53.8725 0 53.2867V1.75719C0 0.58573 1.11959 0 3.35878 0H6.29771C8.1326 0 9.29884 0.483227 9.79644 1.44968L25.4707 27.0607L27.6166 31.9808L29.7625 27.5L45.4835 1.44968C46.0122 0.483227 47.1628 0 48.9355 0H51.6879C53.896 0 55 0.58573 55 1.75719V53.2867C55 54.4289 53.896 55 51.6879 55H51.1281C49.9463 55 49.091 54.8682 48.5623 54.6046C48.0336 54.3118 47.7693 53.8725 47.7693 53.2867V11.246L47.6293 11.5974L31.1154 38.6142C30.8977 38.9657 30.6489 39.2292 30.369 39.405C30.0891 39.5514 29.7314 39.6246 29.296 39.6246H25.9839C25.1442 39.6246 24.5222 39.2878 24.1179 38.6142L7.2307 10.8067V53.2867C7.2307 54.4289 6.12666 55 3.91857 55H3.35878Z" fill="url(#paint1_linear_36_4)"/>
<defs>
<linearGradient id="paint0_linear_36_4" x1="19.1173" y1="15.4163" x2="18.1634" y2="38.9458" gradientUnits="userSpaceOnUse">
<stop offset="0.289843" stop-color="#8A2BE2"/>
<stop offset="1" stop-color="#7E42FF"/>
</linearGradient>
<linearGradient id="paint1_linear_36_4" x1="19.1173" y1="15.4163" x2="18.1634" y2="38.9458" gradientUnits="userSpaceOnUse">
<stop offset="0.289843" stop-color="#8A2BE2"/>
<stop offset="1" stop-color="#7E42FF"/>
</linearGradient>
</defs>
</svg>
